<?xml version="1.0" encoding="UTF-8"?>
<svg version="1.1" xmlns="http://www.w3.org/2000/svg" width="512" height="512">
<path d="M0 0 C1.01790619 0.00215515 2.03581238 0.0043103 3.08456421 0.00653076 C17.69363523 0.05620146 32.02575853 0.30709809 46.375 3.3125 C47.34985352 3.51117676 48.32470703 3.70985352 49.32910156 3.91455078 C97.7109774 14.03517194 141.69928269 35.9516877 177.375 70.3125 C178.3640332 71.26068604 178.3640332 71.26068604 179.37304688 72.22802734 C188.86130305 81.37247479 197.6012044 90.66984009 205.375 101.3125 C206.23306152 102.46355017 207.09113451 103.61459177 207.94921875 104.765625 C213.98736829 112.95680614 219.34595521 121.47054105 224.375 130.3125 C224.73948242 130.94430176 225.10396484 131.57610352 225.47949219 132.22705078 C247.00981855 169.84336237 256.83759735 212.56515288 256.75 255.625 C256.74918427 257.13927582 256.74918427 257.13927582 256.74835205 258.68414307 C256.70757156 275.19958953 255.77994321 291.10183935 252.375 307.3125 C252.16601074 308.32779785 251.95702148 309.3430957 251.74169922 310.38916016 C243.84945344 347.53296555 227.74595578 382.39695445 204.375 412.3125 C203.61574219 413.28445313 202.85648437 414.25640625 202.07421875 415.2578125 C189.80264365 430.55913705 176.01572125 445.42476589 160.375 457.3125 C159.74529297 457.79154785 159.11558594 458.2705957 158.46679688 458.76416016 C143.00641789 470.43943695 126.83115614 480.33885086 109.4375 488.875 C108.43195068 489.37588135 107.42640137 489.8767627 106.39038086 490.39282227 C91.6103585 497.4528952 78.02660558 499.30016979 62.375 494.3125 C49.67034497 488.68037267 40.23381501 479.89430527 34.9375 466.875 C34.38314566 465.36606241 33.8586899 463.84555103 33.375 462.3125 C33.19939041 461.760746 33.02378082 461.208992 32.84284973 460.64051819 C32.18976861 457.39078943 32.21072003 454.17379996 32.19799805 450.87280273 C32.19142685 450.12910934 32.18485565 449.38541595 32.17808533 448.6191864 C32.15840146 446.1614877 32.14669762 443.70385012 32.13671875 441.24609375 C32.13264322 440.40295183 32.1285677 439.55980991 32.12436867 438.69111824 C32.10352385 434.22401298 32.08921808 429.75693825 32.07983398 425.28979492 C32.06880291 420.69914549 32.03443696 416.10898522 31.99466228 411.51850796 C31.96837902 407.96919419 31.96013158 404.41999462 31.95655251 400.87059212 C31.95171281 399.17987852 31.94017447 397.48916911 31.92151451 395.79855156 C31.75663009 379.86297065 35.06412331 368.22268537 45.875 356.1875 C52.1765556 350.16044398 60.40492904 346.96721727 68.34375 343.63671875 C92.59189464 333.45161464 111.98669711 318.19488882 123 293.91796875 C127.38976881 282.40729655 127.56172887 270.8458547 127.56030273 258.65527344 C127.56248177 256.5798669 127.5806848 254.50500012 127.59960938 252.4296875 C127.6704995 235.78594553 125.99754597 215.46733402 113.81103516 202.67016602 C111.75122941 199.28840061 111.93418178 196.02485296 111.93359375 192.1796875 C111.92038589 191.38781036 111.90717804 190.59593323 111.89356995 189.78005981 C111.85274616 187.24917168 111.83105464 184.71864208 111.8125 182.1875 C112.64770638 165.11537195 112.64770638 165.11537195 106.9375 149.75 C102.75821096 145.77457871 98.83041454 145.95732348 93.31640625 146.05078125 C83.75034794 146.90194447 75.46038167 153.02585817 67.42578125 157.875 C66.74507568 158.28145752 66.06437012 158.68791504 65.36303711 159.10668945 C64.0614519 159.89614412 62.7723332 160.70662072 61.49829102 161.53979492 C58.70479941 163.30304102 56.82942794 164.31434477 53.48828125 164.30078125 C52.56402344 164.07777344 51.63976562 163.85476562 50.6875 163.625 C39.88973971 161.1355588 28.86535124 161.15410878 17.8359375 161.14453125 C16.46131356 161.14130377 15.08668994 161.13793869 13.71206665 161.13444519 C10.84628506 161.12850373 7.98053339 161.12660001 5.11474609 161.12719727 C2.21559384 161.12727834 -0.68339978 161.1203576 -3.58251953 161.10668945 C-28.32600523 160.66649435 -28.32600523 160.66649435 -52.75097656 164.04101562 C-56.36755213 164.38264254 -57.86282332 163.55066127 -60.9609375 161.70703125 C-61.94320312 161.13533203 -62.92546875 160.56363281 -63.9375 159.97460938 C-64.948125 159.36423828 -65.95875 158.75386719 -67 158.125 C-69.00681687 156.94231936 -71.01461158 155.76129621 -73.0234375 154.58203125 C-73.97831055 154.01822754 -74.93318359 153.45442383 -75.91699219 152.87353516 C-84.28126484 148.05193767 -90.87446598 145.51186964 -100.625 146.3125 C-104.49001169 147.92292154 -106.31591663 149.89012247 -108.625 153.3125 C-110.85819949 159.26194167 -110.75665694 165.6594287 -110.7578125 171.92578125 C-110.76068268 173.0981282 -110.76068268 173.0981282 -110.76361084 174.29415894 C-110.76633022 177.55448958 -110.76522158 180.81315528 -110.70410156 184.07299805 C-110.50134547 196.39290303 -112.29873286 203.33696959 -119.625 213.3125 C-126.45099419 226.21765138 -126.81198108 239.62325173 -126.81030273 253.96972656 C-126.81248177 256.0451331 -126.8306848 258.11999988 -126.84960938 260.1953125 C-126.95190704 284.21298611 -120.67830161 304.06758826 -103.625 321.3125 C-100.84373138 323.74703221 -97.99841362 326.04281186 -95.08203125 328.3125 C-90.97306064 331.65716288 -87.32830343 335.20258971 -85.625 340.3125 C-85.0936318 346.58264482 -85.80693462 351.176293 -89.625 356.3125 C-94.54007458 360.32480578 -98.52843962 360.77018752 -104.78125 360.84375 C-111.46073314 359.59593447 -116.24487805 355.18071831 -121 350.625 C-121.56380371 350.09100586 -122.12760742 349.55701172 -122.70849609 349.00683594 C-123.83665114 347.93494396 -124.96189869 346.85998219 -126.08398438 345.78173828 C-127.39617562 344.53066621 -128.73457071 343.3071724 -130.078125 342.08984375 C-145.72092406 327.48802233 -158.64427383 304.07634893 -159.77217102 282.49673462 C-159.78201523 281.5279538 -159.79185944 280.55917297 -159.80200195 279.56103516 C-159.82125481 277.89737411 -159.82125481 277.89737411 -159.84089661 276.20010376 C-159.84828354 275.01258514 -159.85567047 273.82506653 -159.86328125 272.6015625 C-159.871353 271.36062836 -159.87942474 270.11969421 -159.88774109 268.84115601 C-159.9015555 266.21361679 -159.91228943 263.58605982 -159.92016602 260.95849609 C-159.92897221 258.29530901 -159.95202587 255.63338202 -159.98168945 252.97021484 C-160.21978328 231.57369318 -159.12812665 212.92934016 -147.50244141 194.29296875 C-143.95968199 187.82042361 -143.82752235 182.19568132 -143.9609375 174.9375 C-143.95671783 173.69178223 -143.95249817 172.44606445 -143.94815063 171.16259766 C-143.93735329 167.21194547 -143.96522793 163.26299403 -144 159.3125 C-144.02414586 155.36223668 -144.03918076 151.41273594 -144.03042603 147.46240234 C-144.02589469 145.01476668 -144.04018104 142.56699554 -144.07675171 140.11962891 C-144.07329269 129.08080009 -141.37059552 119.44629959 -133.625 111.3125 C-125.06183755 103.73516438 -115.74771676 103.5849667 -104.84033203 104.12597656 C-92.42346922 105.17143426 -79.36731603 112.15988071 -69.29559326 119.31845093 C-55.91683943 128.62036839 -44.92803717 130.13258323 -28.890625 129.9765625 C-26.55529809 129.98977761 -24.21998755 130.0062349 -21.88470459 130.02572632 C-17.01952062 130.05223965 -12.15698905 130.03511754 -7.29199219 129.98681641 C-1.12592249 129.92974573 5.03254664 129.99095669 11.19795704 130.08233738 C46.13630211 131.26737226 46.13630211 131.26737226 76.36717224 115.93832397 C88.65582908 105.98767317 104.04975047 103.15396916 119.39013672 104.10107422 C123.63238881 104.55295495 126.88736489 105.92226732 130.375 108.3125 C130.99375 108.70179687 131.6125 109.09109375 132.25 109.4921875 C138.73746901 114.21797312 142.82715344 122.52577347 144.375 130.3125 C144.44476632 132.14747403 144.4594566 133.98487637 144.4375 135.82104492 C144.42384399 137.48009102 144.42384399 137.48009102 144.40991211 139.1726532 C144.39839111 140.36735733 144.38687012 141.56206146 144.375 142.79296875 C144.37353805 146.01099681 144.37702809 149.22897852 144.38197327 152.44700146 C144.38417629 155.78873733 144.36689075 159.12784926 144.32373047 162.46948242 C144.13848121 178.15229494 144.35497048 190.30502811 153.30419922 203.49717712 C158.32016037 212.00070943 160.45279152 223.31507034 160.55200195 233.0480957 C160.56483719 234.15397537 160.57767242 235.25985504 160.59089661 236.39924622 C160.60197701 238.17581856 160.60197701 238.17581856 160.61328125 239.98828125 C160.621353 241.22684372 160.62942474 242.46540619 160.63774109 243.74150085 C160.65155645 246.36484388 160.66228997 248.98820469 160.67016602 251.61157227 C160.67896429 254.2679254 160.70200518 256.92301288 160.73168945 259.5793457 C160.94014081 278.25262748 160.71693111 295.21805656 152.125 312.1875 C151.73441406 312.98212646 151.34382813 313.77675293 150.94140625 314.59545898 C145.62242608 325.13982076 138.44965968 333.76206071 130.375 342.3125 C129.65054687 343.11300781 128.92609375 343.91351563 128.1796875 344.73828125 C114.41589169 359.36523036 96.0596496 369.79223046 77.5 377.125 C73.16206356 378.86986829 70.12653409 380.36863447 67.375 384.3125 C65.12626335 391.21865566 65.06852269 397.80635058 65.07421875 405.02734375 C65.06993362 406.23765762 65.0656485 407.4479715 65.06123352 408.69496155 C65.05550944 411.24577206 65.05497572 413.79659889 65.05932617 416.34741211 C65.06248686 420.23384625 65.03899886 424.11951913 65.01367188 428.00585938 C65.01139866 430.49218655 65.01069549 432.97851575 65.01171875 435.46484375 C64.99790413 437.1949192 64.99790413 437.1949192 64.98381042 438.95994568 C65.02335826 445.91016529 65.21222493 453.18463761 69.61454773 458.93028259 C73.31909369 462.46664772 77.40073895 463.42485611 82.375 463.3125 C85.35108515 462.56412563 87.99698012 461.34086021 90.75 460 C91.52456543 459.63753174 92.29913086 459.27506348 93.09716797 458.90161133 C117.1967731 447.42595643 137.97873139 432.61381796 157.375 414.3125 C158.2309375 413.51070313 159.086875 412.70890625 159.96875 411.8828125 C166.85323829 405.23797412 172.64750681 397.94639168 178.375 390.3125 C178.80312988 389.75046875 179.23125977 389.1884375 179.67236328 388.609375 C186.92477639 379.05482998 192.85584298 368.95261609 198.375 358.3125 C198.76574707 357.56371582 199.15649414 356.81493164 199.55908203 356.04345703 C215.42172991 325.2567401 222.83020261 291.49835659 222.75 257 C222.74912384 256.07663849 222.74824768 255.15327698 222.74734497 254.20193481 C222.55625336 192.95674352 196.94234939 137.34251246 153.84301758 94.48022461 C111.69158547 53.36244078 52.79723719 32.63633896 -5.59375 33.33203125 C-67.57407989 35.02717651 -123.37980849 62.92687695 -165.69775391 107.23730469 C-207.52550362 152.27605216 -223.86074621 212.28205617 -221.85253906 272.47460938 C-221.41704416 282.92136947 -219.94067452 293.11754025 -217.625 303.3125 C-217.41069336 304.25883301 -217.19638672 305.20516602 -216.97558594 306.18017578 C-207.28624758 347.4127532 -186.66072502 382.80038218 -157.625 413.3125 C-156.54025391 414.47652344 -156.54025391 414.47652344 -155.43359375 415.6640625 C-149.07903727 422.28778067 -141.9318749 427.79493482 -134.625 433.3125 C-133.67238281 434.03695313 -132.71976562 434.76140625 -131.73828125 435.5078125 C-116.44383846 446.89491589 -99.46738519 456.35772891 -81.8125 463.5625 C-81.07813721 463.87453369 -80.34377441 464.18656738 -79.5871582 464.50805664 C-76.1190214 465.8580939 -73.92592022 466.36942147 -70.23828125 465.671875 C-67.36421812 464.44368111 -67.36421812 464.44368111 -65.625 461.3125 C-65.07342172 456.43835633 -65.07342172 456.43835633 -67.15234375 452.1796875 C-70.43092414 449.70391905 -73.59929316 449.36908213 -77.5625 448.875 C-94.71037842 446.25661138 -107.0975528 439.22703891 -117.625 425.3125 C-120.96362477 420.1729878 -123.77475219 414.73177425 -126.625 409.3125 C-127.54223234 407.59596046 -128.46022629 405.87982772 -129.37890625 404.1640625 C-131.14602177 400.84663828 -132.91047231 397.52792827 -134.65625 394.19921875 C-135.01267578 393.52076904 -135.36910156 392.84231934 -135.73632812 392.14331055 C-136.625 390.3125 -136.625 390.3125 -137.625 387.3125 C-140.2189355 386.42398941 -140.2189355 386.42398941 -143.3125 385.875 C-149.63027255 384.42108793 -153.49623355 382.55330679 -158 377.8125 C-160.39803575 372.64749991 -160.37881535 367.9122712 -159.625 362.3125 C-157.31926233 357.34629578 -154.41147328 354.88202416 -149.625 352.3125 C-146.15350401 351.714117 -142.76570745 351.70791054 -139.25 351.75 C-138.3425 351.72615234 -137.435 351.70230469 -136.5 351.67773438 C-128.15655755 351.69576775 -123.08146637 354.73007945 -117.25 360.5 C-111.14365278 367.85821794 -107.01412701 376.9142625 -102.55810547 385.32666016 C-96.26329599 397.16902034 -89.01850746 408.97403845 -75.625 413.3125 C-71.64815792 414.21996732 -67.6688232 414.79459768 -63.625 415.3125 C-53.62796674 416.74064761 -46.00820074 419.09337039 -38.625 426.3125 C-32.95032615 433.90493067 -31.30963097 440.81870314 -31.25390625 450.171875 C-31.24487778 451.11629456 -31.2358493 452.06071411 -31.22654724 453.03375244 C-31.21207985 455.02735239 -31.20316676 457.02099944 -31.19946289 459.01464844 C-31.18759129 462.03924133 -31.13839186 465.06177596 -31.08789062 468.0859375 C-30.91689278 488.22625096 -30.91689278 488.22625096 -38.6003418 496.41870117 C-44.4556587 502.06331396 -49.75350437 504.44141661 -57.8125 504.875 C-93.53019683 503.93407016 -135.344487 477.88846307 -161.625 455.3125 C-162.66964628 454.44939806 -163.71529886 453.58751327 -164.76171875 452.7265625 C-177.89224963 441.82056395 -190.25429441 429.89978808 -200.625 416.3125 C-201.55297212 415.13639253 -202.4813872 413.96063448 -203.41015625 412.78515625 C-211.43048636 402.50190989 -218.15413785 391.6209423 -224.625 380.3125 C-225.18912598 379.34908691 -225.18912598 379.34908691 -225.76464844 378.36621094 C-240.4654932 353.20222971 -249.2794475 324.0180494 -253.625 295.3125 C-253.80232666 294.19367432 -253.97965332 293.07484863 -254.16235352 291.92211914 C-255.84376341 280.20014053 -255.98234341 268.57751024 -255.9375 256.75 C-255.93426727 255.21939438 -255.93426727 255.21939438 -255.93096924 253.65786743 C-255.88133352 239.03039476 -255.63419712 224.67986162 -252.625 210.3125 C-252.42632324 209.33764648 -252.22764648 208.36279297 -252.02294922 207.35839844 C-241.90232806 158.9765226 -219.9858123 114.98821731 -185.625 79.3125 C-184.99287598 78.65314453 -184.36075195 77.99378906 -183.70947266 77.31445312 C-174.56502521 67.82619695 -165.26765991 59.0862956 -154.625 51.3125 C-153.47394983 50.45443848 -152.32290823 49.59636549 -151.171875 48.73828125 C-142.98224019 42.70072604 -134.47961724 37.31792698 -125.625 32.3125 C-124.91778809 31.9103125 -124.21057617 31.508125 -123.48193359 31.09375 C-100.34654164 18.0683259 -75.17537591 9.31948539 -49.1875 4 C-48.46860596 3.85264404 -47.74971191 3.70528809 -47.0090332 3.5534668 C-31.36274391 0.57960912 -15.88931954 -0.06050362 0 0 Z " fill="#161414" transform="translate(255.625,-0.3125)"/>
<path d="M0 0 C4.8846525 2.26787438 7.73212562 5.1153475 10 10 C10.75381535 15.5997712 10.77303575 20.33499991 8.375 25.5 C3.80134327 30.3143755 0.6912538 32.25156236 -6 32.5 C-12.6912538 32.25156236 -15.80134327 30.3143755 -20.375 25.5 C-22.77303575 20.33499991 -22.75381535 15.5997712 -22 10 C-17.52212837 0.3553534 -9.85292056 -1.32635469 0 0 Z " fill="#161515" transform="translate(214,352)"/>
</svg>
